<svg width="190" height="40" viewBox="0 0 190 40" fill="none" xmlns="http://www.w3.org/2000/svg">
<path d="M29.9772 27.494C29.7941 27.494 29.6225 27.5397 29.4623 27.631C29.3021 27.6994 29.119 27.7907 28.913 27.9048C28.5239 28.1329 28.0318 28.3725 27.4367 28.6235C26.8417 28.8517 26.0635 28.9658 25.1022 28.9658C23.9349 28.9658 22.8478 28.7832 21.8407 28.4182C20.8566 28.0303 19.9983 27.5055 19.2659 26.8438C18.5564 26.1592 17.9956 25.372 17.5836 24.4821C17.1945 23.5694 17 22.5883 17 21.5387C17 20.5575 17.1717 19.622 17.515 18.7321C17.8812 17.8423 18.3961 17.0551 19.0599 16.3705C19.7236 15.686 20.5361 15.1384 21.4974 14.7277C22.4816 14.317 23.5916 14.1116 24.8275 14.1116C25.6744 14.1116 26.361 14.2143 26.8874 14.4196C27.4138 14.6022 27.8601 14.7847 28.2263 14.9673C28.4323 15.0814 28.6269 15.1726 28.81 15.2411C29.016 15.3095 29.222 15.3438 29.4279 15.3438V17.9449H29.0846C28.9702 17.5114 28.7642 17.1349 28.4667 16.8155C28.1691 16.4732 27.8258 16.188 27.4367 15.9598C27.0476 15.7316 26.6242 15.5605 26.1665 15.4464C25.7087 15.3323 25.2624 15.2753 24.8275 15.2753C23.8892 15.2753 23.0652 15.4464 22.3557 15.7887C21.6462 16.1081 21.0625 16.5417 20.6048 17.0893C20.147 17.6141 19.8037 18.2188 19.5749 18.9033C19.346 19.5878 19.2315 20.2951 19.2315 21.0253C19.2315 21.8695 19.3689 22.7024 19.6435 23.5238C19.9182 24.3224 20.3073 25.0412 20.8108 25.6801C21.3372 26.3189 21.9666 26.8323 22.699 27.2202C23.4314 27.6081 24.2554 27.8021 25.1709 27.8021C25.8117 27.8021 26.3953 27.7108 26.9218 27.5283C27.4711 27.3457 27.9288 27.1062 28.295 26.8095C28.6841 26.5129 28.9931 26.1935 29.222 25.8512C29.4508 25.4861 29.5882 25.1438 29.6339 24.8244H29.9772V27.494ZM39.4715 28.9658C38.3271 28.9658 37.2972 28.7832 36.3817 28.4182C35.4662 28.0303 34.6766 27.5169 34.0128 26.878C33.372 26.2163 32.8684 25.4405 32.5022 24.5506C32.1589 23.6607 31.9873 22.691 31.9873 21.6414C31.9873 20.5233 32.1818 19.5079 32.5709 18.5952C32.96 17.6597 33.4978 16.8611 34.1845 16.1994C34.8711 15.5377 35.6836 15.0243 36.622 14.6592C37.5604 14.2941 38.5789 14.1116 39.6775 14.1116C40.7761 14.1116 41.7831 14.2941 42.6986 14.6592C43.6141 15.0015 44.4038 15.4921 45.0675 16.131C45.7312 16.7698 46.2462 17.5342 46.6124 18.4241C46.9786 19.2912 47.1617 20.2495 47.1617 21.2991C47.1617 22.2803 46.9901 23.2386 46.6467 24.1741C46.3263 25.0868 45.8342 25.8968 45.1705 26.6042C44.5296 27.3115 43.7286 27.8819 42.7673 28.3155C41.8289 28.749 40.7303 28.9658 39.4715 28.9658ZM39.2655 15.2411C38.4416 15.2867 37.7092 15.4921 37.0683 15.8571C36.4503 16.1994 35.9239 16.6558 35.4891 17.2262C35.0771 17.7738 34.7567 18.4013 34.5278 19.1086C34.3218 19.816 34.2188 20.5347 34.2188 21.2649C34.2188 22.1091 34.3447 22.9306 34.5964 23.7292C34.8711 24.505 35.2487 25.2009 35.7294 25.817C36.2329 26.433 36.828 26.9236 37.5146 27.2887C38.2012 27.6538 38.968 27.8363 39.8148 27.8363C40.6617 27.8363 41.4055 27.6538 42.0464 27.2887C42.7101 26.9236 43.2594 26.4559 43.6943 25.8854C44.1291 25.2922 44.4495 24.6305 44.6555 23.9003C44.8844 23.1701 44.9988 22.44 44.9988 21.7098C44.9988 20.9568 44.8844 20.2039 44.6555 19.4509C44.4267 18.6751 44.0719 17.9792 43.5913 17.3631C43.1106 16.7242 42.5041 16.2108 41.7717 15.8229C41.0622 15.435 40.2268 15.2411 39.2655 15.2411ZM72.2042 26.5015C72.2042 26.684 72.2271 26.8894 72.2729 27.1176C72.3187 27.3229 72.3873 27.5169 72.4789 27.6994C72.5704 27.8819 72.6734 28.0417 72.7879 28.1786C72.9252 28.3155 73.0854 28.3839 73.2685 28.3839V28.7262H68.8054V28.3839C68.9885 28.3839 69.1487 28.3155 69.2861 28.1786C69.4234 28.0417 69.5378 27.8819 69.6294 27.6994C69.7438 27.5169 69.8239 27.3229 69.8697 27.1176C69.9155 26.8894 69.9384 26.684 69.9384 26.5015V19.1086C69.9384 18.5838 69.8583 18.0818 69.698 17.6027C69.5607 17.1235 69.3433 16.7128 69.0457 16.3705C68.7482 16.0055 68.382 15.7202 67.9471 15.5149C67.5123 15.2867 67.0202 15.1726 66.4709 15.1726C65.8529 15.1726 65.3151 15.3209 64.8573 15.6176C64.4225 15.8914 64.0563 16.2336 63.7587 16.6443C63.4841 17.0551 63.2781 17.4772 63.1408 17.9107C63.0034 18.3214 62.9348 18.6637 62.9348 18.9375V26.5015C62.9348 26.684 62.9577 26.8894 63.0034 27.1176C63.0492 27.3229 63.1179 27.5169 63.2094 27.6994C63.3239 27.8819 63.4383 28.0417 63.5527 28.1786C63.6901 28.3155 63.8503 28.3839 64.0334 28.3839V28.7262H59.6046V28.3839C59.7648 28.3839 59.9136 28.3155 60.0509 28.1786C60.1883 28.0417 60.3027 27.8819 60.3942 27.6994C60.5087 27.5169 60.5888 27.3229 60.6346 27.1176C60.6803 26.8894 60.7032 26.684 60.7032 26.5015V18.9033C60.7032 18.3557 60.6002 17.8537 60.3942 17.3973C60.2111 16.9182 59.9479 16.5189 59.6046 16.1994C59.2842 15.88 58.9066 15.629 58.4717 15.4464C58.0597 15.2639 57.6363 15.1726 57.2014 15.1726C56.6064 15.1726 56.0799 15.2867 55.6222 15.5149C55.1873 15.7431 54.8211 16.0283 54.5236 16.3705C54.2489 16.7128 54.0315 17.0893 53.8713 17.5C53.734 17.8879 53.6653 18.2644 53.6653 18.6295V26.5015C53.6653 26.684 53.6882 26.8894 53.734 27.1176C53.7797 27.3229 53.8484 27.5169 53.94 27.6994C54.0544 27.8819 54.1688 28.0417 54.2833 28.1786C54.4206 28.3155 54.5808 28.3839 54.7639 28.3839V28.7262H50.3352V28.3839C50.4954 28.3839 50.6441 28.3155 50.7815 28.1786C50.9188 28.0417 51.0332 27.8819 51.1248 27.6994C51.2392 27.5169 51.3193 27.3229 51.3651 27.1176C51.4109 26.8894 51.4338 26.684 51.4338 26.5015V17.3631C51.4338 17.1806 51.4223 16.9752 51.3994 16.747C51.3765 16.5189 51.3308 16.3021 51.2621 16.0967C51.1934 15.8914 51.079 15.7202 50.9188 15.5833C50.7586 15.4464 50.5412 15.378 50.2665 15.378V15.0699L53.6653 13.9405V15.686C54.0086 15.2981 54.4778 14.9216 55.0729 14.5565C55.6909 14.1915 56.4919 14.0089 57.4761 14.0089C58.1169 14.0089 58.6891 14.1002 59.1926 14.2827C59.6962 14.4653 60.131 14.7049 60.4972 15.0015C60.8863 15.2753 61.2182 15.5947 61.4928 15.9598C61.7675 16.3249 61.9964 16.6786 62.1795 17.0208C62.3626 16.6786 62.58 16.3363 62.8318 15.994C63.0835 15.629 63.3811 15.2981 63.7244 15.0015C64.0906 14.7049 64.514 14.4653 64.9946 14.2827C65.4982 14.1002 66.0818 14.0089 66.7455 14.0089C68.0272 14.0089 69.0343 14.2371 69.7667 14.6935C70.4991 15.1498 71.037 15.6974 71.3803 16.3363C71.7465 16.9752 71.9754 17.6483 72.0669 18.3557C72.1585 19.0402 72.2042 19.622 72.2042 20.1012V26.5015ZM85.8488 28.7262V26.9807L85.6772 27.1518C85.105 27.7222 84.4412 28.1672 83.6859 28.4866C82.9535 28.8061 82.0609 28.9658 81.0081 28.9658C80.207 28.9658 79.5204 28.8745 78.9482 28.692C78.376 28.5094 77.9068 28.2584 77.5406 27.939C77.1744 27.5967 76.8998 27.2088 76.7167 26.7753C76.5565 26.3418 76.4764 25.8854 76.4764 25.4063C76.4764 24.6305 76.6823 23.9459 77.0943 23.3527C77.5292 22.7594 78.1471 22.2346 78.9482 21.7783C79.7493 21.3219 80.722 20.9112 81.8664 20.5461C83.0336 20.1582 84.3611 19.7817 85.8488 19.4167C85.803 18.5268 85.6199 17.808 85.2995 17.2604C84.9791 16.7128 84.6014 16.2907 84.1666 15.994C83.7317 15.6746 83.274 15.4692 82.7933 15.378C82.3127 15.2639 81.9007 15.2068 81.5574 15.2068C80.9623 15.2068 80.4359 15.2981 79.9782 15.4807C79.5433 15.6632 79.1542 15.9028 78.8109 16.1994C78.4905 16.4732 78.2158 16.7813 77.9869 17.1235C77.7581 17.443 77.575 17.751 77.4376 18.0476H77.1287V15.5491C77.3118 15.5263 77.4834 15.4692 77.6436 15.378C77.8038 15.2867 77.9984 15.1954 78.2273 15.1042C78.5706 14.9673 79.0398 14.7733 79.6348 14.5223C80.2299 14.2485 81.0653 14.1116 82.141 14.1116C83.3998 14.1116 84.4183 14.2713 85.1965 14.5908C85.9747 14.9102 86.5698 15.3323 86.9817 15.8571C87.4166 16.3819 87.7027 16.9866 87.84 17.6711C87.9774 18.3328 88.046 19.0174 88.046 19.7247V26.5015C88.046 26.9578 88.149 27.3914 88.355 27.8021C88.561 28.19 88.8356 28.3839 89.179 28.3839V28.7262H85.8488ZM85.8488 25.4747V20.5804L85.5055 20.6488C84.9562 20.7857 84.281 20.9683 83.4799 21.1964C82.7018 21.4246 81.9579 21.7212 81.2484 22.0863C80.5389 22.4514 79.9324 22.8849 79.4288 23.3869C78.9253 23.8889 78.6736 24.4707 78.6736 25.1324C78.6736 25.8626 78.9711 26.4673 79.5662 26.9464C80.1613 27.4256 80.9394 27.6652 81.9007 27.6652C82.656 27.6652 83.3197 27.5055 83.8919 27.186C84.4641 26.8438 84.9905 26.4102 85.4712 25.8854L85.8488 25.4747ZM99.8227 14.1116C101.059 14.1116 102.123 14.317 103.016 14.7277C103.931 15.1384 104.686 15.686 105.281 16.3705C105.876 17.0551 106.323 17.8423 106.62 18.7321C106.918 19.5992 107.067 20.4891 107.067 21.4018C107.067 22.3373 106.918 23.2614 106.62 24.1741C106.323 25.064 105.865 25.874 105.247 26.6042C104.652 27.3115 103.908 27.8819 103.016 28.3155C102.123 28.749 101.093 28.9658 99.9257 28.9658C99.056 28.9658 98.2664 28.7946 97.5569 28.4524C96.8474 28.0873 96.2866 27.6538 95.8746 27.1518V28.7262H92.5102V28.3839C92.6704 28.3839 92.8191 28.3155 92.9565 28.1786C93.0938 28.0417 93.2082 27.8819 93.2998 27.6994C93.4142 27.5169 93.4943 27.3229 93.5401 27.1176C93.5859 26.8894 93.6088 26.684 93.6088 26.5015V9.04613C93.6088 8.65823 93.5515 8.29316 93.4371 7.95089C93.3227 7.60863 92.9908 7.42609 92.4415 7.40327V7.06101L95.8746 6V15.7887C96.401 15.2639 97.019 14.8532 97.7285 14.5565C98.4609 14.2599 99.159 14.1116 99.8227 14.1116ZM100.166 27.8021C100.99 27.7564 101.7 27.5625 102.295 27.2202C102.89 26.8552 103.382 26.3988 103.771 25.8512C104.183 25.3036 104.48 24.6875 104.663 24.003C104.869 23.2956 104.972 22.5769 104.972 21.8467C104.972 21.0253 104.858 20.2267 104.629 19.4509C104.4 18.6751 104.057 17.9792 103.599 17.3631C103.164 16.747 102.615 16.2564 101.951 15.8914C101.288 15.5035 100.532 15.3095 99.6854 15.3095C99.2048 15.3095 98.7356 15.4236 98.2778 15.6518C97.8201 15.8571 97.4081 16.1424 97.0419 16.5074C96.6986 16.8497 96.4125 17.2718 96.1836 17.7738C95.9776 18.253 95.8746 18.7664 95.8746 19.314V23.558C95.8746 24.2197 96.0005 24.813 96.2523 25.3378C96.504 25.8626 96.8359 26.3075 97.2479 26.6726C97.6599 27.0377 98.1176 27.3229 98.6211 27.5283C99.1475 27.7108 99.6625 27.8021 100.166 27.8021ZM117.32 28.9658C116.176 28.9658 115.146 28.7832 114.23 28.4182C113.315 28.0303 112.525 27.5169 111.862 26.878C111.221 26.2163 110.717 25.4405 110.351 24.5506C110.008 23.6607 109.836 22.691 109.836 21.6414C109.836 20.5233 110.031 19.5079 110.42 18.5952C110.809 17.6597 111.347 16.8611 112.033 16.1994C112.72 15.5377 113.532 15.0243 114.471 14.6592C115.409 14.2941 116.428 14.1116 117.526 14.1116C118.625 14.1116 119.632 14.2941 120.547 14.6592C121.463 15.0015 122.253 15.4921 122.916 16.131C123.58 16.7698 124.095 17.5342 124.461 18.4241C124.827 19.2912 125.011 20.2495 125.011 21.2991C125.011 22.2803 124.839 23.2386 124.496 24.1741C124.175 25.0868 123.683 25.8968 123.019 26.6042C122.378 27.3115 121.577 27.8819 120.616 28.3155C119.678 28.749 118.579 28.9658 117.32 28.9658ZM117.114 15.2411C116.29 15.2867 115.558 15.4921 114.917 15.8571C114.299 16.1994 113.773 16.6558 113.338 17.2262C112.926 17.7738 112.605 18.4013 112.377 19.1086C112.171 19.816 112.068 20.5347 112.068 21.2649C112.068 22.1091 112.193 22.9306 112.445 23.7292C112.72 24.505 113.098 25.2009 113.578 25.817C114.082 26.433 114.677 26.9236 115.363 27.2887C116.05 27.6538 116.817 27.8363 117.664 27.8363C118.51 27.8363 119.254 27.6538 119.895 27.2887C120.559 26.9236 121.108 26.4559 121.543 25.8854C121.978 25.2922 122.298 24.6305 122.504 23.9003C122.733 23.1701 122.848 22.44 122.848 21.7098C122.848 20.9568 122.733 20.2039 122.504 19.4509C122.275 18.6751 121.921 17.9792 121.44 17.3631C120.959 16.7242 120.353 16.2108 119.62 15.8229C118.911 15.435 118.076 15.2411 117.114 15.2411ZM135.291 28.9658C134.147 28.9658 133.117 28.7832 132.201 28.4182C131.286 28.0303 130.496 27.5169 129.832 26.878C129.192 26.2163 128.688 25.4405 128.322 24.5506C127.979 23.6607 127.807 22.691 127.807 21.6414C127.807 20.5233 128.001 19.5079 128.391 18.5952C128.78 17.6597 129.317 16.8611 130.004 16.1994C130.691 15.5377 131.503 15.0243 132.442 14.6592C133.38 14.2941 134.398 14.1116 135.497 14.1116C136.596 14.1116 137.603 14.2941 138.518 14.6592C139.434 15.0015 140.223 15.4921 140.887 16.131C141.551 16.7698 142.066 17.5342 142.432 18.4241C142.798 19.2912 142.981 20.2495 142.981 21.2991C142.981 22.2803 142.81 23.2386 142.466 24.1741C142.146 25.0868 141.654 25.8968 140.99 26.6042C140.349 27.3115 139.548 27.8819 138.587 28.3155C137.649 28.749 136.55 28.9658 135.291 28.9658ZM135.085 15.2411C134.261 15.2867 133.529 15.4921 132.888 15.8571C132.27 16.1994 131.744 16.6558 131.309 17.2262C130.897 17.7738 130.576 18.4013 130.347 19.1086C130.141 19.816 130.038 20.5347 130.038 21.2649C130.038 22.1091 130.164 22.9306 130.416 23.7292C130.691 24.505 131.068 25.2009 131.549 25.817C132.053 26.433 132.648 26.9236 133.334 27.2887C134.021 27.6538 134.788 27.8363 135.634 27.8363C136.481 27.8363 137.225 27.6538 137.866 27.2887C138.53 26.9236 139.079 26.4559 139.514 25.8854C139.949 25.2922 140.269 24.6305 140.475 23.9003C140.704 23.1701 140.818 22.44 140.818 21.7098C140.818 20.9568 140.704 20.2039 140.475 19.4509C140.246 18.6751 139.892 17.9792 139.411 17.3631C138.93 16.7242 138.324 16.2108 137.591 15.8229C136.882 15.435 136.046 15.2411 135.085 15.2411ZM157.484 28.7262C157.095 28.7262 156.729 28.6463 156.385 28.4866C156.065 28.3041 155.779 28.1101 155.527 27.9048C155.229 27.6538 154.955 27.38 154.703 27.0833L150.274 21.4018L149.553 22.1205V26.5699C149.553 26.7297 149.576 26.9122 149.622 27.1176C149.668 27.3229 149.736 27.5283 149.828 27.7336C149.942 27.9162 150.068 28.0759 150.206 28.2128C150.343 28.3269 150.503 28.3839 150.686 28.3839V28.7262H146.223V28.3839C146.383 28.3839 146.532 28.3269 146.669 28.2128C146.807 28.0759 146.921 27.9162 147.013 27.7336C147.104 27.5511 147.173 27.3571 147.219 27.1518C147.265 26.9464 147.287 26.7525 147.287 26.5699V9.14881C147.287 8.82937 147.184 8.50992 146.978 8.19048C146.772 7.87103 146.498 7.6999 146.155 7.67708V7.33482L149.553 6.27381V20.5461L155.115 15.3438C155.229 15.2297 155.287 15.0928 155.287 14.933C155.287 14.7733 155.207 14.6935 155.046 14.6935V14.3512H158.136V14.6935C157.999 14.6935 157.85 14.7277 157.69 14.7961C157.553 14.8646 157.415 14.9444 157.278 15.0357C157.118 15.127 156.957 15.2411 156.797 15.378L151.922 19.8958L157.003 26.2961C157.301 26.7068 157.598 27.0605 157.896 27.3571C158.148 27.6081 158.411 27.8477 158.685 28.0759C158.983 28.2812 159.235 28.3839 159.441 28.3839V28.7262H157.484ZM173 24.8244C173 25.4177 172.851 25.9653 172.554 26.4673C172.256 26.9692 171.844 27.4142 171.318 27.8021C170.814 28.1672 170.219 28.4638 169.533 28.692C168.846 28.8973 168.102 29 167.301 29C166.317 29 165.516 28.8745 164.898 28.6235C164.28 28.3497 163.753 28.0759 163.319 27.8021C163.021 27.6195 162.746 27.4712 162.495 27.3571C162.243 27.2202 161.968 27.1518 161.671 27.1518V24.5506H162.014C162.083 24.87 162.277 25.2237 162.598 25.6116C162.941 25.9767 163.341 26.3189 163.799 26.6384C164.28 26.9578 164.795 27.2316 165.344 27.4598C165.916 27.6652 166.488 27.7679 167.061 27.7679C167.473 27.7679 167.896 27.7222 168.331 27.631C168.766 27.5397 169.155 27.3914 169.498 27.186C169.864 26.9807 170.162 26.7297 170.391 26.433C170.643 26.1136 170.768 25.7371 170.768 25.3036C170.768 24.87 170.643 24.4936 170.391 24.1741C170.139 23.8547 169.819 23.5809 169.43 23.3527C169.04 23.1017 168.594 22.8849 168.091 22.7024C167.587 22.5198 167.084 22.3487 166.58 22.189C165.985 22.0064 165.378 21.8011 164.76 21.5729C164.165 21.3447 163.628 21.0823 163.147 20.7857C162.666 20.4663 162.277 20.0898 161.98 19.6563C161.682 19.1999 161.533 18.6637 161.533 18.0476C161.533 17.5228 161.625 17.0208 161.808 16.5417C162.014 16.0625 162.334 15.6518 162.769 15.3095C163.227 14.9444 163.811 14.6592 164.52 14.4539C165.23 14.2257 166.088 14.1116 167.095 14.1116C167.988 14.1116 168.674 14.1915 169.155 14.3512C169.658 14.4881 170.07 14.6364 170.391 14.7961C170.597 14.9102 170.803 15.0015 171.009 15.0699C171.215 15.1156 171.444 15.1384 171.695 15.1384V17.5342H171.421C171.009 16.7813 170.379 16.2108 169.533 15.8229C168.686 15.435 167.816 15.2411 166.923 15.2411C166.351 15.2411 165.859 15.3209 165.447 15.4807C165.035 15.6176 164.692 15.8001 164.417 16.0283C164.165 16.2336 163.971 16.4732 163.834 16.747C163.719 17.0208 163.662 17.2946 163.662 17.5685C163.662 17.9563 163.765 18.2872 163.971 18.561C164.2 18.8348 164.497 19.0744 164.863 19.2798C165.253 19.4851 165.676 19.6791 166.134 19.8616C166.614 20.0441 167.118 20.2153 167.644 20.375C168.285 20.5804 168.926 20.8085 169.567 21.0595C170.208 21.2877 170.78 21.5729 171.283 21.9152C171.787 22.2574 172.199 22.6682 172.519 23.1473C172.84 23.6037 173 24.1627 173 24.8244Z" fill="black"/>
</svg>
