<svg width="192" height="29" viewBox="0 0 192 29" fill="none" xmlns="http://www.w3.org/2000/svg">
<path d="M16.388 26.488C16.164 26.488 15.954 26.544 15.758 26.656C15.562 26.74 15.338 26.852 15.086 26.992C14.61 27.272 14.008 27.566 13.28 27.874C12.552 28.154 11.6 28.294 10.424 28.294C8.996 28.294 7.666 28.07 6.434 27.622C5.23 27.146 4.18 26.502 3.284 25.69C2.416 24.85 1.73 23.884 1.226 22.792C0.75 21.672 0.512 20.468 0.512 19.18C0.512 17.976 0.722 16.828 1.142 15.736C1.59 14.644 2.22 13.678 3.032 12.838C3.844 11.998 4.838 11.326 6.014 10.822C7.218 10.318 8.576 10.066 10.088 10.066C11.124 10.066 11.964 10.192 12.608 10.444C13.252 10.668 13.798 10.892 14.246 11.116C14.498 11.256 14.736 11.368 14.96 11.452C15.212 11.536 15.464 11.578 15.716 11.578V14.77H15.296C15.156 14.238 14.904 13.776 14.54 13.384C14.176 12.964 13.756 12.614 13.28 12.334C12.804 12.054 12.286 11.844 11.726 11.704C11.166 11.564 10.62 11.494 10.088 11.494C8.94 11.494 7.932 11.704 7.064 12.124C6.196 12.516 5.482 13.048 4.922 13.72C4.362 14.364 3.942 15.106 3.662 15.946C3.382 16.786 3.242 17.654 3.242 18.55C3.242 19.586 3.41 20.608 3.746 21.616C4.082 22.596 4.558 23.478 5.174 24.262C5.818 25.046 6.588 25.676 7.484 26.152C8.38 26.628 9.388 26.866 10.508 26.866C11.292 26.866 12.006 26.754 12.65 26.53C13.322 26.306 13.882 26.012 14.33 25.648C14.806 25.284 15.184 24.892 15.464 24.472C15.744 24.024 15.912 23.604 15.968 23.212H16.388V26.488ZM28.003 28.294C26.603 28.294 25.343 28.07 24.223 27.622C23.103 27.146 22.137 26.516 21.325 25.732C20.541 24.92 19.925 23.968 19.477 22.876C19.057 21.784 18.847 20.594 18.847 19.306C18.847 17.934 19.085 16.688 19.561 15.568C20.037 14.42 20.695 13.44 21.535 12.628C22.375 11.816 23.369 11.186 24.517 10.738C25.665 10.29 26.911 10.066 28.255 10.066C29.599 10.066 30.831 10.29 31.951 10.738C33.071 11.158 34.037 11.76 34.849 12.544C35.661 13.328 36.291 14.266 36.739 15.358C37.187 16.422 37.411 17.598 37.411 18.886C37.411 20.09 37.201 21.266 36.781 22.414C36.389 23.534 35.787 24.528 34.975 25.396C34.191 26.264 33.211 26.964 32.035 27.496C30.887 28.028 29.543 28.294 28.003 28.294ZM27.751 11.452C26.743 11.508 25.847 11.76 25.063 12.208C24.307 12.628 23.663 13.188 23.131 13.888C22.627 14.56 22.235 15.33 21.955 16.198C21.703 17.066 21.577 17.948 21.577 18.844C21.577 19.88 21.731 20.888 22.039 21.868C22.375 22.82 22.837 23.674 23.425 24.43C24.041 25.186 24.769 25.788 25.609 26.236C26.449 26.684 27.387 26.908 28.423 26.908C29.459 26.908 30.369 26.684 31.153 26.236C31.965 25.788 32.637 25.214 33.169 24.514C33.701 23.786 34.093 22.974 34.345 22.078C34.625 21.182 34.765 20.286 34.765 19.39C34.765 18.466 34.625 17.542 34.345 16.618C34.065 15.666 33.631 14.812 33.043 14.056C32.455 13.272 31.713 12.642 30.817 12.166C29.949 11.69 28.927 11.452 27.751 11.452ZM68.0473 25.27C68.0473 25.494 68.0753 25.746 68.1313 26.026C68.1873 26.278 68.2713 26.516 68.3833 26.74C68.4953 26.964 68.6213 27.16 68.7613 27.328C68.9293 27.496 69.1253 27.58 69.3493 27.58V28H63.8893V27.58C64.1133 27.58 64.3093 27.496 64.4773 27.328C64.6453 27.16 64.7853 26.964 64.8973 26.74C65.0373 26.516 65.1353 26.278 65.1913 26.026C65.2473 25.746 65.2753 25.494 65.2753 25.27V16.198C65.2753 15.554 65.1773 14.938 64.9813 14.35C64.8133 13.762 64.5473 13.258 64.1833 12.838C63.8193 12.39 63.3713 12.04 62.8393 11.788C62.3073 11.508 61.7053 11.368 61.0333 11.368C60.2773 11.368 59.6193 11.55 59.0593 11.914C58.5273 12.25 58.0793 12.67 57.7153 13.174C57.3793 13.678 57.1273 14.196 56.9593 14.728C56.7913 15.232 56.7073 15.652 56.7073 15.988V25.27C56.7073 25.494 56.7353 25.746 56.7913 26.026C56.8473 26.278 56.9313 26.516 57.0433 26.74C57.1833 26.964 57.3233 27.16 57.4633 27.328C57.6313 27.496 57.8273 27.58 58.0513 27.58V28H52.6333V27.58C52.8293 27.58 53.0113 27.496 53.1793 27.328C53.3473 27.16 53.4873 26.964 53.5993 26.74C53.7393 26.516 53.8373 26.278 53.8933 26.026C53.9493 25.746 53.9773 25.494 53.9773 25.27V15.946C53.9773 15.274 53.8513 14.658 53.5993 14.098C53.3753 13.51 53.0533 13.02 52.6333 12.628C52.2413 12.236 51.7793 11.928 51.2473 11.704C50.7433 11.48 50.2253 11.368 49.6933 11.368C48.9653 11.368 48.3213 11.508 47.7613 11.788C47.2293 12.068 46.7813 12.418 46.4173 12.838C46.0813 13.258 45.8153 13.72 45.6193 14.224C45.4513 14.7 45.3673 15.162 45.3673 15.61V25.27C45.3673 25.494 45.3953 25.746 45.4513 26.026C45.5073 26.278 45.5913 26.516 45.7033 26.74C45.8433 26.964 45.9833 27.16 46.1233 27.328C46.2913 27.496 46.4873 27.58 46.7113 27.58V28H41.2933V27.58C41.4893 27.58 41.6713 27.496 41.8393 27.328C42.0073 27.16 42.1473 26.964 42.2593 26.74C42.3993 26.516 42.4973 26.278 42.5533 26.026C42.6093 25.746 42.6373 25.494 42.6373 25.27V14.056C42.6373 13.832 42.6233 13.58 42.5953 13.3C42.5673 13.02 42.5113 12.754 42.4273 12.502C42.3433 12.25 42.2033 12.04 42.0073 11.872C41.8113 11.704 41.5453 11.62 41.2093 11.62V11.242L45.3673 9.856V11.998C45.7873 11.522 46.3613 11.06 47.0893 10.612C47.8453 10.164 48.8253 9.94 50.0293 9.94C50.8133 9.94 51.5133 10.052 52.1293 10.276C52.7453 10.5 53.2773 10.794 53.7253 11.158C54.2013 11.494 54.6073 11.886 54.9433 12.334C55.2793 12.782 55.5593 13.216 55.7833 13.636C56.0073 13.216 56.2733 12.796 56.5813 12.376C56.8893 11.928 57.2533 11.522 57.6733 11.158C58.1213 10.794 58.6393 10.5 59.2273 10.276C59.8433 10.052 60.5573 9.94 61.3693 9.94C62.9373 9.94 64.1693 10.22 65.0653 10.78C65.9613 11.34 66.6193 12.012 67.0393 12.796C67.4873 13.58 67.7673 14.406 67.8793 15.274C67.9913 16.114 68.0473 16.828 68.0473 17.416V25.27ZM84.7397 28V25.858L84.5297 26.068C83.8297 26.768 83.0177 27.314 82.0937 27.706C81.1977 28.098 80.1057 28.294 78.8177 28.294C77.8377 28.294 76.9977 28.182 76.2977 27.958C75.5977 27.734 75.0237 27.426 74.5757 27.034C74.1277 26.614 73.7917 26.138 73.5677 25.606C73.3717 25.074 73.2737 24.514 73.2737 23.926C73.2737 22.974 73.5257 22.134 74.0297 21.406C74.5617 20.678 75.3177 20.034 76.2977 19.474C77.2777 18.914 78.4677 18.41 79.8677 17.962C81.2957 17.486 82.9197 17.024 84.7397 16.576C84.6837 15.484 84.4597 14.602 84.0677 13.93C83.6757 13.258 83.2137 12.74 82.6817 12.376C82.1497 11.984 81.5897 11.732 81.0017 11.62C80.4137 11.48 79.9097 11.41 79.4897 11.41C78.7617 11.41 78.1177 11.522 77.5577 11.746C77.0257 11.97 76.5497 12.264 76.1297 12.628C75.7377 12.964 75.4017 13.342 75.1217 13.762C74.8417 14.154 74.6177 14.532 74.4497 14.896H74.0717V11.83C74.2957 11.802 74.5057 11.732 74.7017 11.62C74.8977 11.508 75.1357 11.396 75.4157 11.284C75.8357 11.116 76.4097 10.878 77.1377 10.57C77.8657 10.234 78.8877 10.066 80.2037 10.066C81.7437 10.066 82.9897 10.262 83.9417 10.654C84.8937 11.046 85.6217 11.564 86.1257 12.208C86.6577 12.852 87.0077 13.594 87.1757 14.434C87.3437 15.246 87.4277 16.086 87.4277 16.954V25.27C87.4277 25.83 87.5537 26.362 87.8057 26.866C88.0577 27.342 88.3937 27.58 88.8137 27.58V28H84.7397ZM84.7397 24.01V18.004L84.3197 18.088C83.6477 18.256 82.8217 18.48 81.8417 18.76C80.8897 19.04 79.9797 19.404 79.1117 19.852C78.2437 20.3 77.5017 20.832 76.8857 21.448C76.2697 22.064 75.9617 22.778 75.9617 23.59C75.9617 24.486 76.3257 25.228 77.0537 25.816C77.7817 26.404 78.7337 26.698 79.9097 26.698C80.8337 26.698 81.6457 26.502 82.3457 26.11C83.0457 25.69 83.6897 25.158 84.2777 24.514L84.7397 24.01ZM101.835 10.066C103.347 10.066 104.649 10.318 105.741 10.822C106.861 11.326 107.785 11.998 108.513 12.838C109.241 13.678 109.787 14.644 110.151 15.736C110.515 16.8 110.697 17.892 110.697 19.012C110.697 20.16 110.515 21.294 110.151 22.414C109.787 23.506 109.227 24.5 108.471 25.396C107.743 26.264 106.833 26.964 105.741 27.496C104.649 28.028 103.389 28.294 101.961 28.294C100.897 28.294 99.931 28.084 99.063 27.664C98.195 27.216 97.509 26.684 97.005 26.068V28H92.889V27.58C93.085 27.58 93.267 27.496 93.435 27.328C93.603 27.16 93.743 26.964 93.855 26.74C93.995 26.516 94.093 26.278 94.149 26.026C94.205 25.746 94.233 25.494 94.233 25.27V3.85C94.233 3.374 94.163 2.926 94.023 2.506C93.883 2.086 93.477 1.862 92.805 1.834V1.414L97.005 0.111999V12.124C97.649 11.48 98.405 10.976 99.273 10.612C100.169 10.248 101.023 10.066 101.835 10.066ZM102.255 26.866C103.263 26.81 104.131 26.572 104.859 26.152C105.587 25.704 106.189 25.144 106.665 24.472C107.169 23.8 107.533 23.044 107.757 22.204C108.009 21.336 108.135 20.454 108.135 19.558C108.135 18.55 107.995 17.57 107.715 16.618C107.435 15.666 107.015 14.812 106.455 14.056C105.923 13.3 105.251 12.698 104.439 12.25C103.627 11.774 102.703 11.536 101.667 11.536C101.079 11.536 100.505 11.676 99.945 11.956C99.385 12.208 98.881 12.558 98.433 13.006C98.013 13.426 97.663 13.944 97.383 14.56C97.131 15.148 97.005 15.778 97.005 16.45V21.658C97.005 22.47 97.159 23.198 97.467 23.842C97.775 24.486 98.181 25.032 98.685 25.48C99.189 25.928 99.749 26.278 100.365 26.53C101.009 26.754 101.639 26.866 102.255 26.866ZM123.241 28.294C121.841 28.294 120.581 28.07 119.461 27.622C118.341 27.146 117.375 26.516 116.563 25.732C115.779 24.92 115.163 23.968 114.715 22.876C114.295 21.784 114.085 20.594 114.085 19.306C114.085 17.934 114.323 16.688 114.799 15.568C115.275 14.42 115.933 13.44 116.773 12.628C117.613 11.816 118.607 11.186 119.755 10.738C120.903 10.29 122.149 10.066 123.493 10.066C124.837 10.066 126.069 10.29 127.189 10.738C128.309 11.158 129.275 11.76 130.087 12.544C130.899 13.328 131.529 14.266 131.977 15.358C132.425 16.422 132.649 17.598 132.649 18.886C132.649 20.09 132.439 21.266 132.019 22.414C131.627 23.534 131.025 24.528 130.213 25.396C129.429 26.264 128.449 26.964 127.273 27.496C126.125 28.028 124.781 28.294 123.241 28.294ZM122.989 11.452C121.981 11.508 121.085 11.76 120.301 12.208C119.545 12.628 118.901 13.188 118.369 13.888C117.865 14.56 117.473 15.33 117.193 16.198C116.941 17.066 116.815 17.948 116.815 18.844C116.815 19.88 116.969 20.888 117.277 21.868C117.613 22.82 118.075 23.674 118.663 24.43C119.279 25.186 120.007 25.788 120.847 26.236C121.687 26.684 122.625 26.908 123.661 26.908C124.697 26.908 125.607 26.684 126.391 26.236C127.203 25.788 127.875 25.214 128.407 24.514C128.939 23.786 129.331 22.974 129.583 22.078C129.863 21.182 130.003 20.286 130.003 19.39C130.003 18.466 129.863 17.542 129.583 16.618C129.303 15.666 128.869 14.812 128.281 14.056C127.693 13.272 126.951 12.642 126.055 12.166C125.187 11.69 124.165 11.452 122.989 11.452ZM145.226 28.294C143.826 28.294 142.566 28.07 141.446 27.622C140.326 27.146 139.36 26.516 138.548 25.732C137.764 24.92 137.148 23.968 136.7 22.876C136.28 21.784 136.07 20.594 136.07 19.306C136.07 17.934 136.308 16.688 136.784 15.568C137.26 14.42 137.918 13.44 138.758 12.628C139.598 11.816 140.592 11.186 141.74 10.738C142.888 10.29 144.134 10.066 145.478 10.066C146.822 10.066 148.054 10.29 149.174 10.738C150.294 11.158 151.26 11.76 152.072 12.544C152.884 13.328 153.514 14.266 153.962 15.358C154.41 16.422 154.634 17.598 154.634 18.886C154.634 20.09 154.424 21.266 154.004 22.414C153.612 23.534 153.01 24.528 152.198 25.396C151.414 26.264 150.434 26.964 149.258 27.496C148.11 28.028 146.766 28.294 145.226 28.294ZM144.974 11.452C143.966 11.508 143.07 11.76 142.286 12.208C141.53 12.628 140.886 13.188 140.354 13.888C139.85 14.56 139.458 15.33 139.178 16.198C138.926 17.066 138.8 17.948 138.8 18.844C138.8 19.88 138.954 20.888 139.262 21.868C139.598 22.82 140.06 23.674 140.648 24.43C141.264 25.186 141.992 25.788 142.832 26.236C143.672 26.684 144.61 26.908 145.646 26.908C146.682 26.908 147.592 26.684 148.376 26.236C149.188 25.788 149.86 25.214 150.392 24.514C150.924 23.786 151.316 22.974 151.568 22.078C151.848 21.182 151.988 20.286 151.988 19.39C151.988 18.466 151.848 17.542 151.568 16.618C151.288 15.666 150.854 14.812 150.266 14.056C149.678 13.272 148.936 12.642 148.04 12.166C147.172 11.69 146.15 11.452 144.974 11.452ZM172.376 28C171.9 28 171.452 27.902 171.032 27.706C170.64 27.482 170.29 27.244 169.982 26.992C169.618 26.684 169.282 26.348 168.974 25.984L163.556 19.012L162.674 19.894V25.354C162.674 25.55 162.702 25.774 162.758 26.026C162.814 26.278 162.898 26.53 163.01 26.782C163.15 27.006 163.304 27.202 163.472 27.37C163.64 27.51 163.836 27.58 164.06 27.58V28H158.6V27.58C158.796 27.58 158.978 27.51 159.146 27.37C159.314 27.202 159.454 27.006 159.566 26.782C159.678 26.558 159.762 26.32 159.818 26.068C159.874 25.816 159.902 25.578 159.902 25.354V3.976C159.902 3.584 159.776 3.192 159.524 2.8C159.272 2.408 158.936 2.198 158.516 2.17V1.75L162.674 0.447999V17.962L169.478 11.578C169.618 11.438 169.688 11.27 169.688 11.074C169.688 10.878 169.59 10.78 169.394 10.78V10.36H173.174V10.78C173.006 10.78 172.824 10.822 172.628 10.906C172.46 10.99 172.292 11.088 172.124 11.2C171.928 11.312 171.732 11.452 171.536 11.62L165.572 17.164L171.788 25.018C172.152 25.522 172.516 25.956 172.88 26.32C173.188 26.628 173.51 26.922 173.846 27.202C174.21 27.454 174.518 27.58 174.77 27.58V28H172.376ZM191.358 23.212C191.358 23.94 191.176 24.612 190.812 25.228C190.448 25.844 189.944 26.39 189.3 26.866C188.684 27.314 187.956 27.678 187.116 27.958C186.276 28.21 185.366 28.336 184.386 28.336C183.182 28.336 182.202 28.182 181.446 27.874C180.69 27.538 180.046 27.202 179.514 26.866C179.15 26.642 178.814 26.46 178.506 26.32C178.198 26.152 177.862 26.068 177.498 26.068V22.876H177.918C178.002 23.268 178.24 23.702 178.632 24.178C179.052 24.626 179.542 25.046 180.102 25.438C180.69 25.83 181.32 26.166 181.992 26.446C182.692 26.698 183.392 26.824 184.092 26.824C184.596 26.824 185.114 26.768 185.646 26.656C186.178 26.544 186.654 26.362 187.074 26.11C187.522 25.858 187.886 25.55 188.166 25.186C188.474 24.794 188.628 24.332 188.628 23.8C188.628 23.268 188.474 22.806 188.166 22.414C187.858 22.022 187.466 21.686 186.99 21.406C186.514 21.098 185.968 20.832 185.352 20.608C184.736 20.384 184.12 20.174 183.504 19.978C182.776 19.754 182.034 19.502 181.278 19.222C180.55 18.942 179.892 18.62 179.304 18.256C178.716 17.864 178.24 17.402 177.876 16.87C177.512 16.31 177.33 15.652 177.33 14.896C177.33 14.252 177.442 13.636 177.666 13.048C177.918 12.46 178.31 11.956 178.842 11.536C179.402 11.088 180.116 10.738 180.984 10.486C181.852 10.206 182.902 10.066 184.134 10.066C185.226 10.066 186.066 10.164 186.654 10.36C187.27 10.528 187.774 10.71 188.166 10.906C188.418 11.046 188.67 11.158 188.922 11.242C189.174 11.298 189.454 11.326 189.762 11.326V14.266H189.426C188.922 13.342 188.152 12.642 187.116 12.166C186.08 11.69 185.016 11.452 183.924 11.452C183.224 11.452 182.622 11.55 182.118 11.746C181.614 11.914 181.194 12.138 180.858 12.418C180.55 12.67 180.312 12.964 180.144 13.3C180.004 13.636 179.934 13.972 179.934 14.308C179.934 14.784 180.06 15.19 180.312 15.526C180.592 15.862 180.956 16.156 181.404 16.408C181.88 16.66 182.398 16.898 182.958 17.122C183.546 17.346 184.162 17.556 184.806 17.752C185.59 18.004 186.374 18.284 187.158 18.592C187.942 18.872 188.642 19.222 189.258 19.642C189.874 20.062 190.378 20.566 190.77 21.154C191.162 21.714 191.358 22.4 191.358 23.212Z" fill="black"/>
</svg>
