<svg width="195" height="67" viewBox="0 0 195 67" fill="none" xmlns="http://www.w3.org/2000/svg">
<path d="M17.388 32.488C17.164 32.488 16.954 32.544 16.758 32.656C16.562 32.74 16.338 32.852 16.086 32.992C15.61 33.272 15.008 33.566 14.28 33.874C13.552 34.154 12.6 34.294 11.424 34.294C9.996 34.294 8.666 34.07 7.434 33.622C6.23 33.146 5.18 32.502 4.284 31.69C3.416 30.85 2.73 29.884 2.226 28.792C1.75 27.672 1.512 26.468 1.512 25.18C1.512 23.976 1.722 22.828 2.142 21.736C2.59 20.644 3.22 19.678 4.032 18.838C4.844 17.998 5.838 17.326 7.014 16.822C8.218 16.318 9.576 16.066 11.088 16.066C12.124 16.066 12.964 16.192 13.608 16.444C14.252 16.668 14.798 16.892 15.246 17.116C15.498 17.256 15.736 17.368 15.96 17.452C16.212 17.536 16.464 17.578 16.716 17.578V20.77H16.296C16.156 20.238 15.904 19.776 15.54 19.384C15.176 18.964 14.756 18.614 14.28 18.334C13.804 18.054 13.286 17.844 12.726 17.704C12.166 17.564 11.62 17.494 11.088 17.494C9.94 17.494 8.932 17.704 8.064 18.124C7.196 18.516 6.482 19.048 5.922 19.72C5.362 20.364 4.942 21.106 4.662 21.946C4.382 22.786 4.242 23.654 4.242 24.55C4.242 25.586 4.41 26.608 4.746 27.616C5.082 28.596 5.558 29.478 6.174 30.262C6.818 31.046 7.588 31.676 8.484 32.152C9.38 32.628 10.388 32.866 11.508 32.866C12.292 32.866 13.006 32.754 13.65 32.53C14.322 32.306 14.882 32.012 15.33 31.648C15.806 31.284 16.184 30.892 16.464 30.472C16.744 30.024 16.912 29.604 16.968 29.212H17.388V32.488ZM29.003 34.294C27.603 34.294 26.343 34.07 25.223 33.622C24.103 33.146 23.137 32.516 22.325 31.732C21.541 30.92 20.925 29.968 20.477 28.876C20.057 27.784 19.847 26.594 19.847 25.306C19.847 23.934 20.085 22.688 20.561 21.568C21.037 20.42 21.695 19.44 22.535 18.628C23.375 17.816 24.369 17.186 25.517 16.738C26.665 16.29 27.911 16.066 29.255 16.066C30.599 16.066 31.831 16.29 32.951 16.738C34.071 17.158 35.037 17.76 35.849 18.544C36.661 19.328 37.291 20.266 37.739 21.358C38.187 22.422 38.411 23.598 38.411 24.886C38.411 26.09 38.201 27.266 37.781 28.414C37.389 29.534 36.787 30.528 35.975 31.396C35.191 32.264 34.211 32.964 33.035 33.496C31.887 34.028 30.543 34.294 29.003 34.294ZM28.751 17.452C27.743 17.508 26.847 17.76 26.063 18.208C25.307 18.628 24.663 19.188 24.131 19.888C23.627 20.56 23.235 21.33 22.955 22.198C22.703 23.066 22.577 23.948 22.577 24.844C22.577 25.88 22.731 26.888 23.039 27.868C23.375 28.82 23.837 29.674 24.425 30.43C25.041 31.186 25.769 31.788 26.609 32.236C27.449 32.684 28.387 32.908 29.423 32.908C30.459 32.908 31.369 32.684 32.153 32.236C32.965 31.788 33.637 31.214 34.169 30.514C34.701 29.786 35.093 28.974 35.345 28.078C35.625 27.182 35.765 26.286 35.765 25.39C35.765 24.466 35.625 23.542 35.345 22.618C35.065 21.666 34.631 20.812 34.043 20.056C33.455 19.272 32.713 18.642 31.817 18.166C30.949 17.69 29.927 17.452 28.751 17.452ZM69.0473 31.27C69.0473 31.494 69.0753 31.746 69.1313 32.026C69.1873 32.278 69.2713 32.516 69.3833 32.74C69.4953 32.964 69.6213 33.16 69.7613 33.328C69.9293 33.496 70.1253 33.58 70.3493 33.58V34H64.8893V33.58C65.1133 33.58 65.3093 33.496 65.4773 33.328C65.6453 33.16 65.7853 32.964 65.8973 32.74C66.0373 32.516 66.1353 32.278 66.1913 32.026C66.2473 31.746 66.2753 31.494 66.2753 31.27V22.198C66.2753 21.554 66.1773 20.938 65.9813 20.35C65.8133 19.762 65.5473 19.258 65.1833 18.838C64.8193 18.39 64.3713 18.04 63.8393 17.788C63.3073 17.508 62.7053 17.368 62.0333 17.368C61.2773 17.368 60.6193 17.55 60.0593 17.914C59.5273 18.25 59.0793 18.67 58.7153 19.174C58.3793 19.678 58.1273 20.196 57.9593 20.728C57.7913 21.232 57.7073 21.652 57.7073 21.988V31.27C57.7073 31.494 57.7353 31.746 57.7913 32.026C57.8473 32.278 57.9313 32.516 58.0433 32.74C58.1833 32.964 58.3233 33.16 58.4633 33.328C58.6313 33.496 58.8273 33.58 59.0513 33.58V34H53.6333V33.58C53.8293 33.58 54.0113 33.496 54.1793 33.328C54.3473 33.16 54.4873 32.964 54.5993 32.74C54.7393 32.516 54.8373 32.278 54.8933 32.026C54.9493 31.746 54.9773 31.494 54.9773 31.27V21.946C54.9773 21.274 54.8513 20.658 54.5993 20.098C54.3753 19.51 54.0533 19.02 53.6333 18.628C53.2413 18.236 52.7793 17.928 52.2473 17.704C51.7433 17.48 51.2253 17.368 50.6933 17.368C49.9653 17.368 49.3213 17.508 48.7613 17.788C48.2293 18.068 47.7813 18.418 47.4173 18.838C47.0813 19.258 46.8153 19.72 46.6193 20.224C46.4513 20.7 46.3673 21.162 46.3673 21.61V31.27C46.3673 31.494 46.3953 31.746 46.4513 32.026C46.5073 32.278 46.5913 32.516 46.7033 32.74C46.8433 32.964 46.9833 33.16 47.1233 33.328C47.2913 33.496 47.4873 33.58 47.7113 33.58V34H42.2933V33.58C42.4893 33.58 42.6713 33.496 42.8393 33.328C43.0073 33.16 43.1473 32.964 43.2593 32.74C43.3993 32.516 43.4973 32.278 43.5533 32.026C43.6093 31.746 43.6373 31.494 43.6373 31.27V20.056C43.6373 19.832 43.6233 19.58 43.5953 19.3C43.5673 19.02 43.5113 18.754 43.4273 18.502C43.3433 18.25 43.2033 18.04 43.0073 17.872C42.8113 17.704 42.5453 17.62 42.2093 17.62V17.242L46.3673 15.856V17.998C46.7873 17.522 47.3613 17.06 48.0893 16.612C48.8453 16.164 49.8253 15.94 51.0293 15.94C51.8133 15.94 52.5133 16.052 53.1293 16.276C53.7453 16.5 54.2773 16.794 54.7253 17.158C55.2013 17.494 55.6073 17.886 55.9433 18.334C56.2793 18.782 56.5593 19.216 56.7833 19.636C57.0073 19.216 57.2733 18.796 57.5813 18.376C57.8893 17.928 58.2533 17.522 58.6733 17.158C59.1213 16.794 59.6393 16.5 60.2273 16.276C60.8433 16.052 61.5573 15.94 62.3693 15.94C63.9373 15.94 65.1693 16.22 66.0653 16.78C66.9613 17.34 67.6193 18.012 68.0393 18.796C68.4873 19.58 68.7673 20.406 68.8793 21.274C68.9913 22.114 69.0473 22.828 69.0473 23.416V31.27ZM85.7397 34V31.858L85.5297 32.068C84.8297 32.768 84.0177 33.314 83.0937 33.706C82.1977 34.098 81.1057 34.294 79.8177 34.294C78.8377 34.294 77.9977 34.182 77.2977 33.958C76.5977 33.734 76.0237 33.426 75.5757 33.034C75.1277 32.614 74.7917 32.138 74.5677 31.606C74.3717 31.074 74.2737 30.514 74.2737 29.926C74.2737 28.974 74.5257 28.134 75.0297 27.406C75.5617 26.678 76.3177 26.034 77.2977 25.474C78.2777 24.914 79.4677 24.41 80.8677 23.962C82.2957 23.486 83.9197 23.024 85.7397 22.576C85.6837 21.484 85.4597 20.602 85.0677 19.93C84.6757 19.258 84.2137 18.74 83.6817 18.376C83.1497 17.984 82.5897 17.732 82.0017 17.62C81.4137 17.48 80.9097 17.41 80.4897 17.41C79.7617 17.41 79.1177 17.522 78.5577 17.746C78.0257 17.97 77.5497 18.264 77.1297 18.628C76.7377 18.964 76.4017 19.342 76.1217 19.762C75.8417 20.154 75.6177 20.532 75.4497 20.896H75.0717V17.83C75.2957 17.802 75.5057 17.732 75.7017 17.62C75.8977 17.508 76.1357 17.396 76.4157 17.284C76.8357 17.116 77.4097 16.878 78.1377 16.57C78.8657 16.234 79.8877 16.066 81.2037 16.066C82.7437 16.066 83.9897 16.262 84.9417 16.654C85.8937 17.046 86.6217 17.564 87.1257 18.208C87.6577 18.852 88.0077 19.594 88.1757 20.434C88.3437 21.246 88.4277 22.086 88.4277 22.954V31.27C88.4277 31.83 88.5537 32.362 88.8057 32.866C89.0577 33.342 89.3937 33.58 89.8137 33.58V34H85.7397ZM85.7397 30.01V24.004L85.3197 24.088C84.6477 24.256 83.8217 24.48 82.8417 24.76C81.8897 25.04 80.9797 25.404 80.1117 25.852C79.2437 26.3 78.5017 26.832 77.8857 27.448C77.2697 28.064 76.9617 28.778 76.9617 29.59C76.9617 30.486 77.3257 31.228 78.0537 31.816C78.7817 32.404 79.7337 32.698 80.9097 32.698C81.8337 32.698 82.6457 32.502 83.3457 32.11C84.0457 31.69 84.6897 31.158 85.2777 30.514L85.7397 30.01ZM102.835 16.066C104.347 16.066 105.649 16.318 106.741 16.822C107.861 17.326 108.785 17.998 109.513 18.838C110.241 19.678 110.787 20.644 111.151 21.736C111.515 22.8 111.697 23.892 111.697 25.012C111.697 26.16 111.515 27.294 111.151 28.414C110.787 29.506 110.227 30.5 109.471 31.396C108.743 32.264 107.833 32.964 106.741 33.496C105.649 34.028 104.389 34.294 102.961 34.294C101.897 34.294 100.931 34.084 100.063 33.664C99.195 33.216 98.509 32.684 98.005 32.068V34H93.889V33.58C94.085 33.58 94.267 33.496 94.435 33.328C94.603 33.16 94.743 32.964 94.855 32.74C94.995 32.516 95.093 32.278 95.149 32.026C95.205 31.746 95.233 31.494 95.233 31.27V9.85C95.233 9.374 95.163 8.926 95.023 8.506C94.883 8.086 94.477 7.862 93.805 7.834V7.414L98.005 6.112V18.124C98.649 17.48 99.405 16.976 100.273 16.612C101.169 16.248 102.023 16.066 102.835 16.066ZM103.255 32.866C104.263 32.81 105.131 32.572 105.859 32.152C106.587 31.704 107.189 31.144 107.665 30.472C108.169 29.8 108.533 29.044 108.757 28.204C109.009 27.336 109.135 26.454 109.135 25.558C109.135 24.55 108.995 23.57 108.715 22.618C108.435 21.666 108.015 20.812 107.455 20.056C106.923 19.3 106.251 18.698 105.439 18.25C104.627 17.774 103.703 17.536 102.667 17.536C102.079 17.536 101.505 17.676 100.945 17.956C100.385 18.208 99.881 18.558 99.433 19.006C99.013 19.426 98.663 19.944 98.383 20.56C98.131 21.148 98.005 21.778 98.005 22.45V27.658C98.005 28.47 98.159 29.198 98.467 29.842C98.775 30.486 99.181 31.032 99.685 31.48C100.189 31.928 100.749 32.278 101.365 32.53C102.009 32.754 102.639 32.866 103.255 32.866ZM124.241 34.294C122.841 34.294 121.581 34.07 120.461 33.622C119.341 33.146 118.375 32.516 117.563 31.732C116.779 30.92 116.163 29.968 115.715 28.876C115.295 27.784 115.085 26.594 115.085 25.306C115.085 23.934 115.323 22.688 115.799 21.568C116.275 20.42 116.933 19.44 117.773 18.628C118.613 17.816 119.607 17.186 120.755 16.738C121.903 16.29 123.149 16.066 124.493 16.066C125.837 16.066 127.069 16.29 128.189 16.738C129.309 17.158 130.275 17.76 131.087 18.544C131.899 19.328 132.529 20.266 132.977 21.358C133.425 22.422 133.649 23.598 133.649 24.886C133.649 26.09 133.439 27.266 133.019 28.414C132.627 29.534 132.025 30.528 131.213 31.396C130.429 32.264 129.449 32.964 128.273 33.496C127.125 34.028 125.781 34.294 124.241 34.294ZM123.989 17.452C122.981 17.508 122.085 17.76 121.301 18.208C120.545 18.628 119.901 19.188 119.369 19.888C118.865 20.56 118.473 21.33 118.193 22.198C117.941 23.066 117.815 23.948 117.815 24.844C117.815 25.88 117.969 26.888 118.277 27.868C118.613 28.82 119.075 29.674 119.663 30.43C120.279 31.186 121.007 31.788 121.847 32.236C122.687 32.684 123.625 32.908 124.661 32.908C125.697 32.908 126.607 32.684 127.391 32.236C128.203 31.788 128.875 31.214 129.407 30.514C129.939 29.786 130.331 28.974 130.583 28.078C130.863 27.182 131.003 26.286 131.003 25.39C131.003 24.466 130.863 23.542 130.583 22.618C130.303 21.666 129.869 20.812 129.281 20.056C128.693 19.272 127.951 18.642 127.055 18.166C126.187 17.69 125.165 17.452 123.989 17.452ZM146.226 34.294C144.826 34.294 143.566 34.07 142.446 33.622C141.326 33.146 140.36 32.516 139.548 31.732C138.764 30.92 138.148 29.968 137.7 28.876C137.28 27.784 137.07 26.594 137.07 25.306C137.07 23.934 137.308 22.688 137.784 21.568C138.26 20.42 138.918 19.44 139.758 18.628C140.598 17.816 141.592 17.186 142.74 16.738C143.888 16.29 145.134 16.066 146.478 16.066C147.822 16.066 149.054 16.29 150.174 16.738C151.294 17.158 152.26 17.76 153.072 18.544C153.884 19.328 154.514 20.266 154.962 21.358C155.41 22.422 155.634 23.598 155.634 24.886C155.634 26.09 155.424 27.266 155.004 28.414C154.612 29.534 154.01 30.528 153.198 31.396C152.414 32.264 151.434 32.964 150.258 33.496C149.11 34.028 147.766 34.294 146.226 34.294ZM145.974 17.452C144.966 17.508 144.07 17.76 143.286 18.208C142.53 18.628 141.886 19.188 141.354 19.888C140.85 20.56 140.458 21.33 140.178 22.198C139.926 23.066 139.8 23.948 139.8 24.844C139.8 25.88 139.954 26.888 140.262 27.868C140.598 28.82 141.06 29.674 141.648 30.43C142.264 31.186 142.992 31.788 143.832 32.236C144.672 32.684 145.61 32.908 146.646 32.908C147.682 32.908 148.592 32.684 149.376 32.236C150.188 31.788 150.86 31.214 151.392 30.514C151.924 29.786 152.316 28.974 152.568 28.078C152.848 27.182 152.988 26.286 152.988 25.39C152.988 24.466 152.848 23.542 152.568 22.618C152.288 21.666 151.854 20.812 151.266 20.056C150.678 19.272 149.936 18.642 149.04 18.166C148.172 17.69 147.15 17.452 145.974 17.452ZM173.376 34C172.9 34 172.452 33.902 172.032 33.706C171.64 33.482 171.29 33.244 170.982 32.992C170.618 32.684 170.282 32.348 169.974 31.984L164.556 25.012L163.674 25.894V31.354C163.674 31.55 163.702 31.774 163.758 32.026C163.814 32.278 163.898 32.53 164.01 32.782C164.15 33.006 164.304 33.202 164.472 33.37C164.64 33.51 164.836 33.58 165.06 33.58V34H159.6V33.58C159.796 33.58 159.978 33.51 160.146 33.37C160.314 33.202 160.454 33.006 160.566 32.782C160.678 32.558 160.762 32.32 160.818 32.068C160.874 31.816 160.902 31.578 160.902 31.354V9.976C160.902 9.584 160.776 9.192 160.524 8.8C160.272 8.408 159.936 8.198 159.516 8.17V7.75L163.674 6.448V23.962L170.478 17.578C170.618 17.438 170.688 17.27 170.688 17.074C170.688 16.878 170.59 16.78 170.394 16.78V16.36H174.174V16.78C174.006 16.78 173.824 16.822 173.628 16.906C173.46 16.99 173.292 17.088 173.124 17.2C172.928 17.312 172.732 17.452 172.536 17.62L166.572 23.164L172.788 31.018C173.152 31.522 173.516 31.956 173.88 32.32C174.188 32.628 174.51 32.922 174.846 33.202C175.21 33.454 175.518 33.58 175.77 33.58V34H173.376ZM192.358 29.212C192.358 29.94 192.176 30.612 191.812 31.228C191.448 31.844 190.944 32.39 190.3 32.866C189.684 33.314 188.956 33.678 188.116 33.958C187.276 34.21 186.366 34.336 185.386 34.336C184.182 34.336 183.202 34.182 182.446 33.874C181.69 33.538 181.046 33.202 180.514 32.866C180.15 32.642 179.814 32.46 179.506 32.32C179.198 32.152 178.862 32.068 178.498 32.068V28.876H178.918C179.002 29.268 179.24 29.702 179.632 30.178C180.052 30.626 180.542 31.046 181.102 31.438C181.69 31.83 182.32 32.166 182.992 32.446C183.692 32.698 184.392 32.824 185.092 32.824C185.596 32.824 186.114 32.768 186.646 32.656C187.178 32.544 187.654 32.362 188.074 32.11C188.522 31.858 188.886 31.55 189.166 31.186C189.474 30.794 189.628 30.332 189.628 29.8C189.628 29.268 189.474 28.806 189.166 28.414C188.858 28.022 188.466 27.686 187.99 27.406C187.514 27.098 186.968 26.832 186.352 26.608C185.736 26.384 185.12 26.174 184.504 25.978C183.776 25.754 183.034 25.502 182.278 25.222C181.55 24.942 180.892 24.62 180.304 24.256C179.716 23.864 179.24 23.402 178.876 22.87C178.512 22.31 178.33 21.652 178.33 20.896C178.33 20.252 178.442 19.636 178.666 19.048C178.918 18.46 179.31 17.956 179.842 17.536C180.402 17.088 181.116 16.738 181.984 16.486C182.852 16.206 183.902 16.066 185.134 16.066C186.226 16.066 187.066 16.164 187.654 16.36C188.27 16.528 188.774 16.71 189.166 16.906C189.418 17.046 189.67 17.158 189.922 17.242C190.174 17.298 190.454 17.326 190.762 17.326V20.266H190.426C189.922 19.342 189.152 18.642 188.116 18.166C187.08 17.69 186.016 17.452 184.924 17.452C184.224 17.452 183.622 17.55 183.118 17.746C182.614 17.914 182.194 18.138 181.858 18.418C181.55 18.67 181.312 18.964 181.144 19.3C181.004 19.636 180.934 19.972 180.934 20.308C180.934 20.784 181.06 21.19 181.312 21.526C181.592 21.862 181.956 22.156 182.404 22.408C182.88 22.66 183.398 22.898 183.958 23.122C184.546 23.346 185.162 23.556 185.806 23.752C186.59 24.004 187.374 24.284 188.158 24.592C188.942 24.872 189.642 25.222 190.258 25.642C190.874 26.062 191.378 26.566 191.77 27.154C192.162 27.714 192.358 28.4 192.358 29.212Z" fill="white"/>
<path d="M60.7708 52.1847H58.5549C58.4696 51.7112 58.311 51.2945 58.079 50.9347C57.847 50.5748 57.5629 50.2694 57.2267 50.0185C56.8906 49.7675 56.5141 49.5781 56.0975 49.4503C55.6855 49.3224 55.2476 49.2585 54.7836 49.2585C53.9455 49.2585 53.195 49.4692 52.5321 49.8906C51.874 50.312 51.3532 50.9299 50.9696 51.7443C50.5908 52.5587 50.4015 53.553 50.4015 54.7273C50.4015 55.911 50.5908 56.91 50.9696 57.7244C51.3532 58.5388 51.8764 59.1544 52.5392 59.571C53.2021 59.9877 53.9479 60.196 54.7765 60.196C55.2357 60.196 55.6713 60.1345 56.0833 60.0114C56.4999 59.8835 56.8764 59.6965 57.2125 59.4503C57.5487 59.2041 57.8328 58.9034 58.0648 58.5483C58.3016 58.1884 58.4649 57.7765 58.5549 57.3125L60.7708 57.3196C60.6524 58.0346 60.4228 58.6927 60.0819 59.294C59.7457 59.8906 59.3124 60.4067 58.7821 60.8423C58.2566 61.2732 57.6552 61.607 56.9782 61.8438C56.3011 62.0805 55.5624 62.1989 54.7623 62.1989C53.5028 62.1989 52.3806 61.9006 51.3958 61.304C50.4109 60.7027 49.6344 59.8433 49.0662 58.7259C48.5028 57.6084 48.2211 56.2756 48.2211 54.7273C48.2211 53.1742 48.5051 51.8414 49.0733 50.7287C49.6415 49.6113 50.418 48.7543 51.4029 48.1577C52.3877 47.5563 53.5075 47.2557 54.7623 47.2557C55.534 47.2557 56.2537 47.367 56.9213 47.5895C57.5937 47.8073 58.1974 48.1293 58.7324 48.5554C59.2675 48.9768 59.7102 49.4929 60.0605 50.1037C60.4109 50.7098 60.6477 51.4034 60.7708 52.1847ZM70.1369 57.4759V51.0909H72.2676V62H70.1795V60.1108H70.0659C69.8149 60.6932 69.4125 61.1785 68.8585 61.5668C68.3092 61.9503 67.6251 62.142 66.8059 62.142C66.1052 62.142 65.4849 61.9882 64.9451 61.6804C64.4101 61.3679 63.9887 60.9062 63.6809 60.2955C63.3779 59.6847 63.2264 58.9295 63.2264 58.0298V51.0909H65.35V57.7741C65.35 58.5175 65.5559 59.1094 65.9679 59.5497C66.3798 59.9901 66.9148 60.2102 67.573 60.2102C67.9707 60.2102 68.3661 60.1108 68.7591 59.9119C69.1568 59.7131 69.4859 59.4124 69.7463 59.0099C70.0114 58.6075 70.1416 58.0961 70.1369 57.4759ZM83.2956 53.7543L81.3709 54.0952C81.2904 53.849 81.1626 53.6146 80.9874 53.392C80.8169 53.1695 80.5849 52.9872 80.2914 52.8452C79.9978 52.7031 79.6309 52.6321 79.1905 52.6321C78.5892 52.6321 78.0873 52.767 77.6848 53.0369C77.2824 53.3021 77.0811 53.6454 77.0811 54.0668C77.0811 54.4313 77.2161 54.7249 77.486 54.9474C77.7559 55.17 78.1915 55.3523 78.7928 55.4943L80.5257 55.892C81.5295 56.1241 82.2776 56.4815 82.7701 56.9645C83.2625 57.4474 83.5087 58.0748 83.5087 58.8466C83.5087 59.5 83.3193 60.0824 82.9405 60.5938C82.5665 61.1004 82.0433 61.4981 81.3709 61.7869C80.7033 62.0758 79.9292 62.2202 79.0485 62.2202C77.8269 62.2202 76.8302 61.9598 76.0584 61.4389C75.2866 60.9134 74.8132 60.1676 74.638 59.2017L76.6905 58.8892C76.8184 59.4242 77.0811 59.8291 77.4789 60.1037C77.8766 60.3736 78.3951 60.5085 79.0343 60.5085C79.7303 60.5085 80.2866 60.3641 80.7033 60.0753C81.12 59.7817 81.3283 59.4242 81.3283 59.0028C81.3283 58.6619 81.2005 58.3755 80.9448 58.1435C80.6938 57.9115 80.3079 57.7363 79.7871 57.6179L77.9405 57.2131C76.9225 56.9811 76.1697 56.6117 75.682 56.1051C75.199 55.5985 74.9576 54.9569 74.9576 54.1804C74.9576 53.5365 75.1375 52.973 75.4973 52.4901C75.8572 52.0071 76.3543 51.6307 76.9888 51.3608C77.6233 51.0862 78.3501 50.9489 79.1692 50.9489C80.3482 50.9489 81.2762 51.2045 81.9533 51.7159C82.6304 52.2225 83.0778 52.902 83.2956 53.7543ZM90.9359 51.0909V52.7955H84.9771V51.0909H90.9359ZM86.5751 48.4773H88.6987V58.7969C88.6987 59.2088 88.7602 59.5189 88.8833 59.7273C89.0065 59.9309 89.1651 60.0705 89.3592 60.1463C89.5581 60.2173 89.7735 60.2528 90.0055 60.2528C90.176 60.2528 90.3251 60.241 90.4529 60.2173C90.5808 60.1937 90.6802 60.1747 90.7512 60.1605L91.1348 61.9148C91.0117 61.9621 90.8365 62.0095 90.6092 62.0568C90.3819 62.1089 90.0978 62.1373 89.7569 62.142C89.1982 62.1515 88.6774 62.0521 88.1944 61.8438C87.7115 61.6354 87.3208 61.3134 87.0225 60.8778C86.7243 60.4422 86.5751 59.8954 86.5751 59.2372V48.4773ZM97.763 62.2202C96.7402 62.2202 95.8477 61.9858 95.0854 61.517C94.3231 61.0483 93.7312 60.3925 93.3098 59.5497C92.8884 58.7069 92.6777 57.7221 92.6777 56.5952C92.6777 55.4635 92.8884 54.474 93.3098 53.6264C93.7312 52.7789 94.3231 52.1207 95.0854 51.652C95.8477 51.1832 96.7402 50.9489 97.763 50.9489C98.7857 50.9489 99.6782 51.1832 100.441 51.652C101.203 52.1207 101.795 52.7789 102.216 53.6264C102.637 54.474 102.848 55.4635 102.848 56.5952C102.848 57.7221 102.637 58.7069 102.216 59.5497C101.795 60.3925 101.203 61.0483 100.441 61.517C99.6782 61.9858 98.7857 62.2202 97.763 62.2202ZM97.7701 60.4375C98.4329 60.4375 98.9822 60.2623 99.4178 59.9119C99.8534 59.5616 100.175 59.0952 100.384 58.5128C100.597 57.9304 100.703 57.2888 100.703 56.5881C100.703 55.892 100.597 55.2528 100.384 54.6705C100.175 54.0833 99.8534 53.6122 99.4178 53.2571C98.9822 52.902 98.4329 52.7244 97.7701 52.7244C97.1025 52.7244 96.5485 52.902 96.1081 53.2571C95.6725 53.6122 95.3482 54.0833 95.1351 54.6705C94.9268 55.2528 94.8226 55.892 94.8226 56.5881C94.8226 57.2888 94.9268 57.9304 95.1351 58.5128C95.3482 59.0952 95.6725 59.5616 96.1081 59.9119C96.5485 60.2623 97.1025 60.4375 97.7701 60.4375ZM105.219 62V51.0909H107.257V52.8665H107.392C107.619 52.2652 107.991 51.7964 108.507 51.4602C109.023 51.1193 109.641 50.9489 110.361 50.9489C111.09 50.9489 111.701 51.1193 112.193 51.4602C112.69 51.8011 113.057 52.2699 113.294 52.8665H113.407C113.668 52.2841 114.082 51.8201 114.65 51.4744C115.219 51.1241 115.896 50.9489 116.682 50.9489C117.671 50.9489 118.479 51.259 119.104 51.8793C119.733 52.4995 120.048 53.4347 120.048 54.6847V62H117.925V54.8835C117.925 54.1449 117.723 53.6098 117.321 53.2784C116.918 52.947 116.438 52.7812 115.879 52.7812C115.188 52.7812 114.65 52.9943 114.267 53.4205C113.883 53.8419 113.692 54.384 113.692 55.0469V62H111.575V54.7486C111.575 54.1567 111.39 53.6809 111.021 53.321C110.652 52.9612 110.171 52.7812 109.579 52.7812C109.177 52.7812 108.805 52.8878 108.464 53.1009C108.128 53.3092 107.856 53.6004 107.648 53.9744C107.444 54.3485 107.342 54.7817 107.342 55.2741V62H105.219ZM122.894 62V51.0909H125.018V62H122.894ZM123.967 49.4077C123.597 49.4077 123.28 49.2846 123.015 49.0384C122.755 48.7874 122.624 48.4891 122.624 48.1435C122.624 47.7931 122.755 47.4948 123.015 47.2486C123.28 46.9976 123.597 46.8722 123.967 46.8722C124.336 46.8722 124.651 46.9976 124.911 47.2486C125.177 47.4948 125.309 47.7931 125.309 48.1435C125.309 48.4891 125.177 48.7874 124.911 49.0384C124.651 49.2846 124.336 49.4077 123.967 49.4077ZM127.648 62V60.544L133.557 53.0369V52.9375H127.839V51.0909H136.206V52.6392L130.524 60.054V60.1534H136.405V62H127.648ZM143.299 62.2202C142.224 62.2202 141.299 61.9905 140.522 61.5312C139.75 61.0672 139.154 60.4162 138.732 59.5781C138.316 58.7353 138.107 57.7481 138.107 56.6165C138.107 55.4991 138.316 54.5142 138.732 53.6619C139.154 52.8097 139.741 52.1444 140.494 51.6662C141.251 51.188 142.137 50.9489 143.15 50.9489C143.766 50.9489 144.362 51.0507 144.94 51.2543C145.517 51.4579 146.036 51.7775 146.495 52.2131C146.954 52.6487 147.317 53.2145 147.582 53.9105C147.847 54.6018 147.98 55.4422 147.98 56.4318V57.1847H139.308V55.5938H145.899C145.899 55.035 145.785 54.5402 145.558 54.1094C145.33 53.6738 145.011 53.3305 144.599 53.0795C144.192 52.8286 143.713 52.7031 143.164 52.7031C142.568 52.7031 142.047 52.8499 141.602 53.1435C141.161 53.4323 140.82 53.8111 140.579 54.2798C140.342 54.7438 140.224 55.2481 140.224 55.7926V57.0355C140.224 57.7647 140.352 58.3849 140.607 58.8963C140.868 59.4077 141.23 59.7983 141.694 60.0682C142.158 60.3333 142.7 60.4659 143.32 60.4659C143.723 60.4659 144.09 60.4091 144.421 60.2955C144.753 60.1771 145.039 60.0019 145.281 59.7699C145.522 59.5379 145.707 59.2514 145.835 58.9105L147.845 59.2727C147.684 59.8646 147.395 60.383 146.978 60.8281C146.566 61.2685 146.048 61.6117 145.423 61.858C144.802 62.0994 144.095 62.2202 143.299 62.2202Z" fill="white"/>
</svg>
